# xmcd
#
# Track frame offsets:
# 150
# 22032
# 38634
# 54754
# 71134
# 85899
# 96634
# 116121
# 131561
# 144615
# 165996
# 186965
# 207496
#
# Disc length: 3225 seconds
#
# Revision: 0
# Processed by: cddbd v1.4PL0 Copyright (c) Steve Scherf et al.
# Submitted via: Axialis_AX_CDPlayer 2.6
#
DISCID=bd0c970d
DTITLE=The Prayerbabies and South Of The River - Sundee Best
DYEAR=1900
DGENRE=
TTITLE0=Jesus On the Mainline
TTITLE1=It's A Living Thing
TTITLE2=Solitary Man
TTITLE3=Heavenly Light
TTITLE4=Shivers
TTITLE5=Brother Moses
TTITLE6=Fisherman's Blues
TTITLE7=Know Your Product
TTITLE8=Sinje Nje Nje
TTITLE9=Get Away Jordan
TTITLE10=I'm On My Way
TTITLE11=Everybody's Talking At Me
TTITLE12=Hallelujah
EXTD=
EXTT0=
EXTT1=
EXTT2=
EXTT3=
EXTT4=
EXTT5=
EXTT6=
EXTT7=
EXTT8=
EXTT9=
EXTT10=
EXTT11=
EXTT12=
PLAYORDER=
